<svg width="540" height="195" viewBox="0 0 540 195" fill="none" xmlns="http://www.w3.org/2000/svg">
<path d="M538.756 73.8542C539.855 86.6705 533.53 99.5065 520.966 111.91C508.406 124.309 489.674 136.118 466.133 146.757C419.058 168.035 352.872 184.392 278.739 190.888C204.605 197.384 135.906 192.9 85.602 180.344C60.5974 174.065 40.1231 165.775 25.6339 155.826C11.1404 145.875 2.71228 134.313 1.61357 121.497C0.514934 108.681 6.84052 95.8445 19.4041 83.4413C32.0089 71.0417 50.7415 59.2332 74.2815 48.5935C121.356 27.3162 187.543 10.9592 261.676 4.46296C335.81 -2.03328 404.509 2.45129 454.813 15.0074C479.818 21.2861 500.292 29.5763 514.781 39.5246C529.274 49.4757 537.702 61.0379 538.756 73.8542Z" stroke="white"/>
</svg>          